<?xml version="1.0" encoding="iso-8859-1"?>
<!-- Uploaded to: SVG Repo, www.svgrepo.com, Generator: SVG Repo Mixer Tools -->
<svg height="800px" width="800px" version="1.1" id="Layer_1" xmlns="http://www.w3.org/2000/svg" xmlns:xlink="http://www.w3.org/1999/xlink" 
	 viewBox="0 0 512 512" xml:space="preserve">
<circle style="fill:#79C9DB;" cx="256" cy="256" r="256"/>
<path style="fill:#99DBFF;" d="M256,0C114.615,0,0,114.615,0,256s114.615,256,256,256V0z"/>
<path style="fill:#D29500;" d="M0.256,244.848C0.097,248.547,0,252.262,0,256c0,141.385,114.615,256,256,256s256-114.615,256-256
	c0-3.738-0.097-7.453-0.256-11.152L0.256,244.848L0.256,244.848z"/>
<path style="fill:#FEAB00;" d="M256,244.848H0.256C0.097,248.547,0,252.262,0,256c0,141.385,114.615,256,256,256V244.848z"/>
<circle style="fill:#D29500;" cx="359.055" cy="140.145" r="48.509"/>
<path style="fill:#637492;" d="M282.678,426.445H136.255c-8.032,0-14.545-6.512-14.545-14.545c0-8.033,6.513-14.545,14.545-14.545
	h146.423c8.032,0,14.545,6.512,14.545,14.545C297.223,419.933,290.711,426.445,282.678,426.445z"/>
<path style="fill:#84A2D1;" d="M256,397.354H136.333c-8.077,0-14.624,6.512-14.624,14.545c0,8.033,6.548,14.545,14.624,14.545H256
	V397.354z"/>
<path style="fill:#39536F;" d="M490.831,358.049C504.438,326.783,512,292.276,512,256c0-3.738-0.097-7.453-0.256-11.152H0.256
	C0.097,248.547,0,252.262,0,256c0,36.276,7.562,70.783,21.169,102.049H490.831z"/>
<path style="fill:#4D5CAE;" d="M256,244.848H0.256C0.097,248.547,0,252.262,0,256c0,36.276,7.562,70.783,21.169,102.049H256V244.848
	z"/>
<path style="fill:#924045;" d="M147.407,437.334c-8.032,0-14.545-6.512-14.545-14.545V188.895c0-8.033,6.513-14.545,14.545-14.545
	c8.032,0,14.545,6.512,14.545,14.545v233.892C161.952,430.82,155.439,437.334,147.407,437.334z"/>
<path style="fill:#C26053;" d="M147.407,437.334c-8.032,0-14.545-6.512-14.545-14.545V188.895c0-8.033,6.513-14.545,14.545-14.545
	V437.334z"/>
<path style="fill:#FD774F;" d="M253.363,278.287c-12.876-59.603-62.973-86.282-106.911-86.282
	c-43.936,0-94.036,26.682-106.912,86.281c-0.929,4.298,0.137,8.785,2.897,12.207c2.761,3.421,6.924,5.411,11.319,5.411h185.388
	c4.396,0,8.559-1.988,11.319-5.411C253.226,287.071,254.291,282.583,253.363,278.287z"/>
<g>
	<path style="fill:#6694FF;" d="M382.64,285.472c0,8.033,6.513,14.545,14.545,14.545h111.017c1.654-9.527,2.785-19.233,3.354-29.091
		H397.185C389.153,270.927,382.64,277.439,382.64,285.472z"/>
	<path style="fill:#6694FF;" d="M446.752,323.296c0,8.033,6.513,14.545,14.545,14.545h37.305c3.194-9.465,5.865-19.168,7.946-29.091
		h-45.251C453.264,308.751,446.752,315.263,446.752,323.296z"/>
</g>
</svg>