<?xml version="1.0" encoding="iso-8859-1"?>
<!-- Uploaded to: SVG Repo, www.svgrepo.com, Generator: SVG Repo Mixer Tools -->
<svg height="800px" width="800px" version="1.1" id="Layer_1" xmlns="http://www.w3.org/2000/svg" xmlns:xlink="http://www.w3.org/1999/xlink" 
	 viewBox="0 0 495 495" xml:space="preserve">
<g>
	<polygon style="fill:#A258CD;" points="87.925,351.472 106.528,495 247.5,495 247.5,351.472 	"/>
	<polygon style="fill:#933EC5;" points="247.5,495 388.472,495 407.075,351.472 247.5,351.472 	"/>
	<path style="fill:#46F8FF;" d="M125.425,117.157c-32.354,0-58.584,26.229-58.584,58.584s26.229,58.573,58.584,58.573H247.5V117.157
		H125.425z"/>
	<path style="fill:#00E7F0;" d="M369.575,117.157c32.354,0,58.584,26.229,58.584,58.584s-26.229,58.573-58.584,58.573H247.5V117.157
		H369.575z"/>
	<path style="fill:#BDFDFF;" d="M247.5,0c-73.837,25.805-109.955,67.2-122.075,117.157H247.5V0z"/>
	<path style="fill:#46F8FF;" d="M247.5,0c73.837,25.805,109.955,67.2,122.075,117.157H247.5V0z"/>
	<path style="fill:#BDFDFF;" d="M87.925,234.314c-32.344,0-58.573,26.229-58.573,58.584s26.23,58.573,58.573,58.573H247.5V234.314
		H87.925z"/>
	<path style="fill:#46F8FF;" d="M407.075,234.314c32.344,0,58.573,26.229,58.573,58.584s-26.23,58.573-58.573,58.573H247.5V234.314
		H407.075z"/>
</g>
</svg>